<svg id="Componente_38_3" data-name="Componente 38 – 3" xmlns="http://www.w3.org/2000/svg" xmlns:xlink="http://www.w3.org/1999/xlink" width="30" height="28" viewBox="0 0 30 28">
  <defs>
    <clipPath id="clip-path">
      <rect id="Retângulo_97" data-name="Retângulo 97" width="30" height="28" transform="translate(0 0)" fill="#4d4d4d"/>
    </clipPath>
  </defs>
  <g id="Grupo_32" data-name="Grupo 32" transform="translate(0 0)" clip-path="url(#clip-path)">
    <path id="Caminho_27" data-name="Caminho 27" d="M30,229.792a3.743,3.743,0,0,1-3.869,3.868q-5.565.008-11.132,0H3.982A3.76,3.76,0,0,1,0,229.668q0-2.3,0-4.61a1.264,1.264,0,0,1,1.248-1.4,1.269,1.269,0,0,1,1.251,1.4c0,1.563,0,3.125,0,4.688a1.274,1.274,0,0,0,1.429,1.415H26.077A1.271,1.271,0,0,0,27.5,229.74c0-1.562,0-3.125,0-4.688a1.257,1.257,0,1,1,2.5.013q0,2.363,0,4.727" transform="translate(0 -206)" fill="#4d4d4d"/>
    <path id="Caminho_28" data-name="Caminho 28" d="M111.345,17.212q-3.073,2.47-6.158,4.926a1.251,1.251,0,0,1-1.769,0q-3.006-2.4-6.006-4.8a1.246,1.246,0,1,1,1.556-1.941c1.245.985,2.483,1.979,3.724,2.968.1.078.2.149.359.264v-.516q0-8.3,0-16.6a2.309,2.309,0,0,1,.06-.616A1.224,1.224,0,0,1,104.42.006a1.263,1.263,0,0,1,1.127,1.16c.011.142,0,.286,0,.43V18.648c.623-.495,1.179-.935,1.734-1.378q1.25-1,2.5-2a1.249,1.249,0,1,1,1.56,1.943" transform="translate(-89.302 0.158)" fill="#4d4d4d"/>
  </g>
</svg>
