<svg id="facebook_header" data-name="facebook header" xmlns="http://www.w3.org/2000/svg" width="18.409" height="35.005" viewBox="0 0 18.409 35.005">
  <path id="Caminho_12" data-name="Caminho 12" d="M13.807,0c.936,0,1.878.051,2.812.093.609.025,1.218.112,1.79.174L18.366,5.9h-.448c-.619,0-1.237-.008-1.856-.008-.463,0-.928.005-1.392.021-1.493.049-2.592.609-2.668,2.476-.048,1.343-.082,4.31-.084,4.466.077,0,1.554.006,3.039.006.743,0,1.469,0,1.975-.006h1.207c-.3,2.165-.58,4.243-.882,6.333H11.919L11.8,35.005H5.242l.12-15.839H0l.048-6.3H5.435l0-.473c.01-1.269-.006-2.538.041-3.807a15.975,15.975,0,0,1,.2-2.414,7.167,7.167,0,0,1,2.873-4.7A8.247,8.247,0,0,1,13.285.006Q13.546,0,13.807,0" fill="#4d4d4d"/>
</svg>
