<svg xmlns="http://www.w3.org/2000/svg" width="7.5" height="14.261" viewBox="0 0 7.5 14.261">
  <path id="Caminho_12" data-name="Caminho 12" d="M5.625,0c.381,0,.765.021,1.146.038.248.01.5.046.729.071L7.482,2.4H7.3c-.252,0-.5,0-.756,0-.189,0-.378,0-.567.009-.608.02-1.056.248-1.087,1.009-.02.547-.033,1.756-.034,1.819.031,0,.633,0,1.238,0,.3,0,.6,0,.8,0H7.39c-.123.882-.236,1.729-.359,2.58H4.856l-.049,6.443H2.136l.049-6.453H0L.02,5.244H2.214l0-.193c0-.517,0-1.034.017-1.551a6.508,6.508,0,0,1,.084-.983A2.92,2.92,0,0,1,3.487.6,3.36,3.36,0,0,1,5.412,0l.213,0" fill="#bc731e"/>
</svg>
