<svg xmlns="http://www.w3.org/2000/svg" width="11.845" height="22.524" viewBox="0 0 11.845 22.524">
  <path id="facebookFooter" d="M8.884,0c.6,0,1.208.033,1.809.06.392.016.784.072,1.152.112L11.818,3.8h-.288c-.4,0-.8-.005-1.194-.005-.3,0-.6,0-.9.014C8.479,3.838,7.772,4.2,7.723,5.4c-.031.864-.053,2.773-.054,2.874.05,0,1,0,1.955,0,.478,0,.945,0,1.271,0h.777C11.477,9.667,11.3,11,11.1,12.349H7.669L7.592,22.524H3.373L3.45,12.333H0L.031,8.282H3.5l0-.3c.006-.817,0-1.633.026-2.45a10.28,10.28,0,0,1,.132-1.553A4.611,4.611,0,0,1,5.507.948,5.306,5.306,0,0,1,8.548,0q.168,0,.336,0" fill="#fff"/>
</svg>
