<svg id="Grupo_448" data-name="Grupo 448" xmlns="http://www.w3.org/2000/svg" width="14.408" height="14.401" viewBox="0 0 14.408 14.401">
  <path id="Caminho_13" data-name="Caminho 13" d="M69.388,6.241H69.4a.857.857,0,0,1,.855.868.873.873,0,0,1-.874.862.865.865,0,0,1,.009-1.729" transform="translate(-58.315 -3.736)" fill="#bc731e"/>
  <path id="Caminho_14" data-name="Caminho 14" d="M57.785,3.708a45.721,45.721,0,0,1-.157,7.745,3.686,3.686,0,0,1-3.18,2.88,35.53,35.53,0,0,1-3.974.161,24.492,24.492,0,0,1-4-.212A3.613,3.613,0,0,1,43.6,11.141a40.182,40.182,0,0,1,.137-8.087,3.674,3.674,0,0,1,3.139-2.8,28.115,28.115,0,0,1,3.61-.162c1.344,0,2.7.036,3.517.081A3.967,3.967,0,0,1,56.635,1.25a3.79,3.79,0,0,1,1.15,2.459M56.4,10.9a51.6,51.6,0,0,0,.089-7.074,2.423,2.423,0,0,0-2.158-2.3,33.087,33.087,0,0,0-3.6-.136c-1.434,0-2.862.039-3.49.107a2.468,2.468,0,0,0-2.3,2.169,49.142,49.142,0,0,0-.05,7.271,2.336,2.336,0,0,0,1.778,2.036,22.32,22.32,0,0,0,3.874.213c1.511,0,2.994-.048,3.552-.108A2.46,2.46,0,0,0,56.4,10.9" transform="translate(-43.465 -0.093)" fill="#bc731e"/>
  <path id="Caminho_15" data-name="Caminho 15" d="M55.806,8.712a3.66,3.66,0,0,1,3.662,3.7,3.728,3.728,0,0,1-3.724,3.69,3.656,3.656,0,0,1-3.662-3.7,3.721,3.721,0,0,1,3.724-3.69m-.054,6.079a2.412,2.412,0,0,0,2.409-2.366,2.365,2.365,0,0,0-2.347-2.412h-.021a2.412,2.412,0,0,0-2.409,2.366,2.368,2.368,0,0,0,2.347,2.412h.022" transform="translate(-48.571 -5.201)" fill="#bc731e"/>
</svg>
