<svg id="instaHeader" xmlns="http://www.w3.org/2000/svg" width="35.366" height="35.349" viewBox="0 0 35.366 35.349">
  <path id="Caminho_13" data-name="Caminho 13" d="M70.644,6.241h.026a2.1,2.1,0,0,1,2.1,2.13,2.143,2.143,0,0,1-2.146,2.115,2.123,2.123,0,0,1,.021-4.245" transform="translate(-43.465 -0.093)" fill="#4d4d4d"/>
  <path id="Caminho_14" data-name="Caminho 14" d="M78.614,8.967c.263,2.782.433,15.93-.386,19.011a9.047,9.047,0,0,1-7.806,7.07,87.211,87.211,0,0,1-9.754.394,60.117,60.117,0,0,1-9.824-.521,8.869,8.869,0,0,1-7.04-7.71c-.475-2.981-.525-16.839.336-19.849A9.018,9.018,0,0,1,51.845.49a69.009,69.009,0,0,1,8.86-.4c3.3,0,6.629.089,8.633.2a9.738,9.738,0,0,1,6.454,2.64,9.3,9.3,0,0,1,2.822,6.035m-3.4,17.662c.507-3.109.508-14.454.218-17.364a5.948,5.948,0,0,0-5.3-5.637,81.213,81.213,0,0,0-8.84-.334c-3.521,0-7.024.1-8.566.263a6.058,6.058,0,0,0-5.649,5.324,120.619,120.619,0,0,0-.122,17.847,5.734,5.734,0,0,0,4.364,5c1.371.384,5.48.522,9.509.522,3.709,0,7.35-.117,8.719-.266a6.038,6.038,0,0,0,5.663-5.353" transform="translate(-43.465 -0.093)" fill="#4d4d4d"/>
  <path id="Caminho_15" data-name="Caminho 15" d="M61.223,8.712a8.984,8.984,0,0,1,8.989,9.072,9.151,9.151,0,0,1-9.141,9.058,8.975,8.975,0,0,1-8.989-9.072,9.132,9.132,0,0,1,9.141-9.058m-.132,14.922A5.92,5.92,0,0,0,67,17.827a5.8,5.8,0,0,0-5.762-5.921h-.052a5.92,5.92,0,0,0-5.912,5.807,5.812,5.812,0,0,0,5.761,5.921h.053" transform="translate(-43.465 -0.093)" fill="#4d4d4d"/>
</svg>
