<svg id="instagramFooter" xmlns="http://www.w3.org/2000/svg" width="22.756" height="22.746" viewBox="0 0 22.756 22.746">
  <path id="Caminho_13" data-name="Caminho 13" d="M69.888,6.241H69.9a1.354,1.354,0,0,1,1.351,1.371,1.379,1.379,0,0,1-1.381,1.361,1.366,1.366,0,0,1,.014-2.731" transform="translate(-52.4 -2.285)" fill="#fff"/>
  <path id="Caminho_14" data-name="Caminho 14" d="M66.082,5.8c.169,1.79.279,10.25-.248,12.233a5.822,5.822,0,0,1-5.023,4.549,56.117,56.117,0,0,1-6.276.254,38.683,38.683,0,0,1-6.321-.335,5.707,5.707,0,0,1-4.53-4.961c-.306-1.918-.338-10.835.216-12.772A5.8,5.8,0,0,1,48.857.348a44.4,44.4,0,0,1,5.7-.255c2.123,0,4.265.057,5.555.128a6.266,6.266,0,0,1,4.153,1.7A5.986,5.986,0,0,1,66.082,5.8M63.894,17.168a81.5,81.5,0,0,0,.14-11.173,3.827,3.827,0,0,0-3.408-3.627,52.257,52.257,0,0,0-5.688-.215c-2.266,0-4.52.062-5.512.169a3.9,3.9,0,0,0-3.635,3.426,77.614,77.614,0,0,0-.078,11.484,3.69,3.69,0,0,0,2.808,3.216,35.253,35.253,0,0,0,6.119.336c2.387,0,4.729-.075,5.61-.171a3.885,3.885,0,0,0,3.644-3.444" transform="translate(-43.465 -0.093)" fill="#fff"/>
  <path id="Caminho_15" data-name="Caminho 15" d="M57.964,8.712a5.781,5.781,0,0,1,5.784,5.837,5.888,5.888,0,0,1-5.882,5.828,5.775,5.775,0,0,1-5.784-5.837,5.876,5.876,0,0,1,5.882-5.828m-.085,9.6a3.81,3.81,0,0,0,3.8-3.737,3.735,3.735,0,0,0-3.708-3.81h-.033a3.809,3.809,0,0,0-3.8,3.737,3.74,3.74,0,0,0,3.707,3.81h.034" transform="translate(-46.537 -3.166)" fill="#fff"/>
</svg>
