<svg id="linkedinFooter" xmlns="http://www.w3.org/2000/svg" width="22.708" height="22.746" viewBox="0 0 22.708 22.746">
  <path id="Caminho_16" data-name="Caminho 16" d="M105.063.093a2.711,2.711,0,0,1,2.717,2.739,2.761,2.761,0,0,1-2.759,2.738A2.717,2.717,0,0,1,102.3,2.832,2.768,2.768,0,0,1,105.063.093" transform="translate(-102.304 -0.093)" fill="#fff"/>
  <path id="Caminho_17" data-name="Caminho 17" d="M107.5,11.819l-.116,15.2h-4.727l.116-15.2Z" transform="translate(-102.43 -4.274)" fill="#fff"/>
  <path id="Caminho_18" data-name="Caminho 18" d="M123.784,11.244c4.787,0,5.642,3.138,5.612,7.236l-.064,8.335h-4.717l.057-7.386c.013-1.769-.01-4.037-2.428-4.037-2.459,0-2.843,1.919-2.858,3.907l-.057,7.516H114.6l.116-15.2h4.527l-.015,2.078h.069a5.011,5.011,0,0,1,4.486-2.448" transform="translate(-106.688 -4.069)" fill="#fff"/>
</svg>
