<svg id="linkedinHeader" xmlns="http://www.w3.org/2000/svg" width="35.291" height="35.349" viewBox="0 0 35.291 35.349">
  <path id="Caminho_16" data-name="Caminho 16" d="M106.592.093a4.213,4.213,0,0,1,4.223,4.256A4.291,4.291,0,0,1,106.527,8.6,4.223,4.223,0,0,1,102.3,4.349,4.3,4.3,0,0,1,106.592.093" transform="translate(-102.304 -0.093)" fill="#4d4d4d"/>
  <path id="Caminho_17" data-name="Caminho 17" d="M110.184,11.819,110,35.442h-7.346l.18-23.623Z" transform="translate(-102.304 -0.093)" fill="#4d4d4d"/>
  <path id="Caminho_18" data-name="Caminho 18" d="M128.873,11.244c7.44,0,8.769,4.877,8.721,11.245l-.1,12.953h-7.331l.088-11.478c.02-2.749-.015-6.274-3.773-6.274-3.821,0-4.419,2.982-4.442,6.072l-.089,11.68H114.6l.181-23.623h7.035l-.024,3.23h.108a7.787,7.787,0,0,1,6.972-3.8" transform="translate(-102.304 -0.093)" fill="#4d4d4d"/>
</svg>
