<svg id="Grupo_449" data-name="Grupo 449" xmlns="http://www.w3.org/2000/svg" width="14.378" height="14.401" viewBox="0 0 14.378 14.401">
  <path id="Caminho_16" data-name="Caminho 16" d="M104.051.093a1.716,1.716,0,0,1,1.72,1.734,1.748,1.748,0,0,1-1.747,1.734,1.72,1.72,0,0,1-1.72-1.734A1.753,1.753,0,0,1,104.051.093" transform="translate(-102.304 -0.093)" fill="#bc731e"/>
  <path id="Caminho_17" data-name="Caminho 17" d="M105.724,11.819l-.073,9.624h-2.993l.073-9.624Z" transform="translate(-102.514 -7.042)" fill="#bc731e"/>
  <path id="Caminho_18" data-name="Caminho 18" d="M120.415,11.244c3.031,0,3.573,1.987,3.553,4.581l-.04,5.277h-2.987l.036-4.676c.008-1.12-.006-2.556-1.537-2.556-1.557,0-1.8,1.215-1.81,2.474l-.036,4.758H114.6l.074-9.624h2.866l-.01,1.316h.044a3.173,3.173,0,0,1,2.84-1.55" transform="translate(-109.591 -6.701)" fill="#bc731e"/>
</svg>
