<?xml version="1.0" encoding="UTF-8"?><svg id="Layer_2" xmlns="http://www.w3.org/2000/svg" viewBox="0 0 786.29 235.18"><defs><style>.cls-1{fill:#fff;stroke-width:0px;}</style></defs><g id="Layer_1-2"><path class="cls-1" d="m4.67,170.08c0,4.55,3.07,7.54,7.74,7.54h62.34v-10.66h-3.07v1.56c0,1.82-1.2,2.99-3.07,2.99H29.63v-43.94h31.1c1.87,0,3.2,1.17,3.2,2.99v1.56h3.07v-15.21h-3.07v1.56c0,1.82-1.33,2.99-3.2,2.99h-31.1v-43.94h38.98c1.87,0,3.07,1.17,3.07,2.99v1.56h3.07v-10.66H0v2.99h1.6c1.87,0,3.07,1.3,3.07,3.12v92.55Z"/><path class="cls-1" d="m118,77.92c-2.4-3.9-7.07-6.5-11.75-6.5h-24.29v2.99h2c1.87,0,3.74,1.17,4.67,2.6l33.1,54.99-32.17,40.3c-1.07,1.43-3.07,2.34-4.94,2.34h-.93v2.99h15.75v-2.99h-.67c-1.87,0-2.27-.91-1.2-2.34l27.5-34.58,20.16,33.41c2.27,3.9,6.94,6.5,11.61,6.5h24.69v-2.99h-2.4c-1.87,0-3.74-1.17-4.67-2.6l-32.97-54.98,32.04-40.3c1.07-1.43,3.2-2.34,5.07-2.34h1.34v-2.99h-15.75v2.99h.13c1.87,0,2.4.91,1.34,2.34l-27.63,34.58-20.02-33.41Z"/><path class="cls-1" d="m261.09,81.56c0,2.08-.4,3.12-1.33,3.12-.67,0-1.6-.52-2.67-1.56-8.28-8.32-19.62-13.26-33.24-13.26-28.57,0-47.79,22.75-47.79,54.6s19.22,54.73,47.79,54.73c21.22,0,34.84-13.26,41.65-32.24h-6.27c-5.74,18.07-18.15,26.13-30.17,26.13-16.55,0-28.03-14.17-28.03-48.62s11.48-48.49,26.43-48.49c17.62,0,33.64,15.99,33.64,32.89h3.2v-27.56h-3.2v.26Z"/><path class="cls-1" d="m303.2,78.96c0-4.55-3.2-7.54-7.88-7.54h-21.76v2.99h1.6c1.87,0,3.07,1.3,3.07,3.12v92.55c0,4.55,3.07,7.54,7.74,7.54h62.34l3.2-10.66h-3.2l-.4,1.69c-.53,1.82-2.27,2.86-4.14,2.86h-40.58v-92.55Z"/><path class="cls-1" d="m378.7,78.96c0-4.55-3.2-7.54-7.88-7.54h-21.76v2.99h1.6c1.87,0,3.07,1.3,3.07,3.12v63.95c0,23.14,13.62,37.7,39.38,37.7s38.58-13.39,38.58-37.7v-63.95c0-1.82,1.2-3.12,3.07-3.12h1.6v-2.99h-15.62v2.99h1.6c1.87,0,3.07,1.3,3.07,3.12v64.47c0,20.28-10.95,31.07-25.76,31.07s-20.96-10.79-20.96-32.11v-62.01Z"/><path class="cls-1" d="m476.14,179.18c30.43,0,45.38-14.3,45.38-33.41,0-36.14-53.66-28.21-53.66-53.82,0-7.67,4.67-15.47,17.35-15.47,14.55,0,25.36,10.92,25.36,25.09h3.07v-30.16h-3.07v2.99c0,1.43-.67,1.69-1.87,1.17-4.94-2.6-15.75-5.2-26.3-5.2-23.09,0-37.91,11.96-37.91,31.2,0,36.14,52.06,26,52.06,53.69,0,10.4-7.21,17.81-19.62,17.81-14.68,0-29.37-10.14-29.37-25.61h-3.07v30.16h3.07v-1.43c0-1.3.8-1.82,2.14-1.3,7.61,2.99,17.49,4.29,26.43,4.29"/><path class="cls-1" d="m533.14,170.08c0,4.55,3.07,7.54,7.74,7.54h21.89v-2.99h-1.6c-1.87,0-3.07-1.3-3.07-3.12v-92.55c0-4.55-3.2-7.54-7.88-7.54h-21.76v2.99h1.6c1.87,0,3.07,1.3,3.07,3.12v92.55Z"/><path class="cls-1" d="m597.61,78.57c-1.47-4.29-5.74-7.15-10.41-7.15h-21.49v2.99h.8c1.87,0,3.6,1.3,4.14,2.99l36.84,100.22h18.69l37.11-101.13c.4-1.3,1.6-2.08,2.94-2.08h.8v-2.99h-12.55v2.99h.4c1.47,0,2.14.91,1.6,2.47l-29.63,81.11-29.23-79.42Z"/><path class="cls-1" d="m665,160.44l32.01-87.13,32.01,87.13h-64.02Zm74.05,27.6c2.31,6.2,8.48,10.33,15.23,10.33h32.01v-4.32h-3.28c-2.12,0-3.86-1.13-4.43-3.19l-53.61-145.9h-48.21v4.32h3.47c9.64,0,14.08,6.01,10.8,15.02l-46.66,126.56c-.58,2.07-2.51,3.19-4.43,3.19h-.96v4.32h16.97v-3c0,.19-2.7-2.44-2.12-4.51l8.1-21.59h70.19l6.94,18.78Z"/><path class="cls-1" d="m427.85,30.02c1.02-3.77,4.02-6.58,7.73-6.58,1.98,0,3.32.83,3.32,2.62,0,3.13-4.34,4.09-8.43,4.09-1.09,0-1.92-.06-2.62-.13m18.91-4.66c0-5.24-4.02-8.75-10.8-8.75-9.84,0-17.05,7.67-17.05,17.82,0,7.67,5.68,12.46,13.54,12.46,4.41,0,8.05-.83,11.75-2.81l-2.36-5.69c-2.43,1.28-4.6,1.79-7.35,1.79-3.77,0-6.13-1.6-6.83-4.73,1.15.13,2.36.19,3.64.19,7.98,0,15.46-2.81,15.46-10.28Zm-40.69,6.52c-.89,4.6-3.9,7.54-7.92,7.54-3.64,0-5.75-2.36-5.75-5.88,0-5.37,3.51-9.39,8.18-9.39,3.58,0,5.68,2.17,5.68,5.81,0,.57-.06,1.21-.19,1.92Zm-2.55-15.14c-3.19,0-6.32,1.02-8.75,2.94.32-.89.57-1.79.77-2.81l2.94-16.86h-8.75l-8.11,46.05h5.88l2.3-4.34c1.85,3.19,5.24,5.11,9.65,5.11,8.18,0,13.73-5.68,15.27-14.31.19-1.28.32-2.43.32-3.58,0-7.28-4.28-12.2-11.5-12.2Zm-32.83.7l-2.62,15.07c-.7,3.83-3.07,6.45-6.52,6.45-2.11,0-3.26-1.34-3.26-3.32,0-.32,0-.64.06-1.02l3.07-17.18h-8.75l-3.19,18.01c-.19.89-.26,1.79-.26,2.62,0,5.24,3.26,8.62,8.62,8.62,4.09,0,7.47-1.92,9.77-4.92l.89,4.28h5.94l5.05-28.62h-8.81Zm-38.71,28.62h8.81L348.9,0h-8.75l-8.18,46.05Zm-21.97.89c6.39,0,12.97-2.36,18.4-7.67l-4.79-6.52c-3.83,3.83-7.73,5.62-12.58,5.62-7.03,0-10.99-4.73-10.99-11.11,0-.96.06-1.98.26-3,1.47-8.43,8.3-14.05,16.03-14.05,4.47,0,7.66,1.28,10.86,4.22l5.24-6.2c-4.41-4.15-9.33-6.52-16.35-6.52-12.84,0-23.19,8.94-25.42,21.78-.26,1.53-.38,3.07-.38,4.54,0,10.79,7.35,18.91,19.74,18.91Z"/><path class="cls-1" d="m594.87,219h1.62l1.33-2,1.35,2h1.64l-2.05-2.95h-1.86l-2.02,2.95Zm.27,5.66c.14-1.35.92-2.9,2.8-2.9,1.66,0,2.6,1.31,2.6,2.9h-5.4Zm6.65,3.87c-.47.39-1.94,1.04-3.21,1.04-1.82,0-3.44-1.41-3.44-3.48h7.44c0-3.35-1.12-5.89-4.6-5.89-2.94,0-4.89,2.19-4.89,5.28,0,3.39,1.7,5.64,5.4,5.64,1.72,0,2.56-.41,3.29-.67v-1.92Zm-15.51-7.91c-.55-.23-1.55-.41-2.33-.41-3.19,0-5.32,2.29-5.32,5.46,0,2.99,2.17,5.46,5.32,5.46.7,0,1.62-.06,2.41-.43l-.14-1.72c-.59.39-1.41.59-2.07.59-2.47,0-3.48-2.05-3.48-3.91,0-1.98,1.21-3.91,3.35-3.91.61,0,1.35.14,2.09.45l.16-1.6Zm-23.16,5.05c0-1.98,1.21-3.91,3.27-3.91s3.25,1.92,3.25,3.91c0,1.86-1,3.91-3.25,3.91s-3.27-2.05-3.27-3.91Zm-2.04,0c0,2.99,2.17,5.46,5.32,5.46s5.3-2.47,5.3-5.46c0-3.17-2.13-5.46-5.3-5.46s-5.32,2.29-5.32,5.46Zm-6.39-5.21h-1.92l-2.88,8.51h-.04l-2.82-8.51h-2.11l3.74,10.43h2.29l3.74-10.43Zm-24.45,6.38c0,1.55-1,2.74-2.9,2.74-.88,0-1.94-.59-1.94-1.7,0-1.84,2.58-2,3.62-2,.41,0,.82.04,1.23.04v.92Zm-5.6-4.01c.78-.65,1.94-1.06,3.03-1.06,1.92,0,2.58.92,2.58,2.72-.76-.04-1.29-.04-2.05-.04-1.98,0-4.85.82-4.85,3.44,0,2.27,1.57,3.25,3.82,3.25,1.76,0,2.78-.96,3.23-1.6h.04v1.35h1.8c-.04-.31-.08-.86-.08-2.05v-4.31c0-2.84-1.21-4.32-4.19-4.32-1.33,0-2.47.41-3.44.98l.1,1.64Zm-13.77,8.06h1.92v-4.74c0-2.62,1.12-4.25,2.84-4.25.33,0,.72.04,1.06.18v-1.72c-.41-.08-.7-.14-1.27-.14-1.1,0-2.21.78-2.72,1.86h-.04v-1.62h-1.8v10.43Zm-10.4-4.05c0,1.55-1,2.74-2.9,2.74-.88,0-1.94-.59-1.94-1.7,0-1.84,2.58-2,3.62-2,.41,0,.82.04,1.23.04v.92Zm-5.6-4.01c.78-.65,1.94-1.06,3.03-1.06,1.92,0,2.58.92,2.58,2.72-.76-.04-1.29-.04-2.05-.04-1.98,0-4.85.82-4.85,3.44,0,2.27,1.57,3.25,3.82,3.25,1.76,0,2.78-.96,3.23-1.6h.04v1.35h1.8c-.04-.31-.08-.86-.08-2.05v-4.31c0-2.84-1.21-4.32-4.19-4.32-1.33,0-2.47.41-3.44.98l.1,1.64Zm-10.44,2.8c.04,1.64-.82,3.95-2.88,3.95-2.17,0-3.07-2.15-3.07-3.89,0-1.94,1-3.93,3.09-3.93s2.9,1.98,2.86,3.86Zm-7.87,9.55h1.92v-5.73h.04c.59.96,1.64,1.68,3.48,1.68,3.15,0,4.48-2.78,4.48-5.64s-1.47-5.28-4.5-5.28c-1.84,0-3.03.94-3.54,1.72h-.04v-1.47h-1.84v14.72Zm-20.13-16.18h1.37l2.68-2.95h-2.23l-1.82,2.95Zm-1.92,6.67c0-1.98,1.21-3.91,3.27-3.91s3.25,1.92,3.25,3.91c0,1.86-1,3.91-3.25,3.91s-3.27-2.05-3.27-3.91Zm-2.04,0c0,2.99,2.17,5.46,5.32,5.46s5.3-2.47,5.3-5.46c0-3.17-2.13-5.46-5.3-5.46s-5.32,2.29-5.32,5.46Zm-13.36,4.89c.88.47,1.88.57,2.86.57,1.86,0,3.64-1.02,3.64-3.25,0-3.33-4.52-2.72-4.52-4.85,0-.86.86-1.27,1.84-1.27.45,0,1.6.27,2.02.53l.16-1.68c-.76-.23-1.49-.41-2.39-.41-2.07,0-3.68,1.04-3.68,3.21,0,2.92,4.52,2.76,4.52,4.66,0,1.12-1.08,1.49-1.96,1.49-.55,0-1.64-.25-2.39-.74l-.1,1.72Zm-18.86,0c.88.47,1.88.57,2.86.57,1.86,0,3.64-1.02,3.64-3.25,0-3.33-4.52-2.72-4.52-4.85,0-.86.86-1.27,1.84-1.27.45,0,1.6.27,2.02.53l.16-1.68c-.76-.23-1.49-.41-2.39-.41-2.07,0-3.68,1.04-3.68,3.21,0,2.92,4.52,2.76,4.52,4.66,0,1.12-1.08,1.49-1.96,1.49-.55,0-1.64-.25-2.39-.74l-.1,1.72Zm-15.49-4.89c0-1.98,1.21-3.91,3.27-3.91s3.25,1.92,3.25,3.91c0,1.86-1,3.91-3.25,3.91s-3.27-2.05-3.27-3.91Zm-2.04,0c0,2.99,2.17,5.46,5.32,5.46s5.3-2.47,5.3-5.46c0-3.17-2.13-5.46-5.3-5.46s-5.32,2.29-5.32,5.46Zm-6.39-5.21h-1.92l-2.88,8.51h-.04l-2.82-8.51h-2.11l3.74,10.43h2.29l3.74-10.43Zm-16.98-4.5h-2.17v2.17h2.17v-2.17Zm-2.05,14.93h1.92v-10.43h-1.92v10.43Zm-14.3-.33c.88.47,1.88.57,2.86.57,1.86,0,3.64-1.02,3.64-3.25,0-3.33-4.52-2.72-4.52-4.85,0-.86.86-1.27,1.84-1.27.45,0,1.6.27,2.02.53l.16-1.68c-.76-.23-1.49-.41-2.39-.41-2.07,0-3.68,1.04-3.68,3.21,0,2.92,4.52,2.76,4.52,4.66,0,1.12-1.08,1.49-1.96,1.49-.55,0-1.64-.25-2.39-.74l-.1,1.72Zm-7.62-10.1h-1.92v4.83c0,2.54-.98,4.29-3.17,4.29-1.68-.1-2.21-1.29-2.21-3.72v-5.4h-1.92v6.2c0,2.8,1.21,4.48,3.91,4.48,1.45,0,2.84-.72,3.42-1.9h.04v1.66h1.86v-10.43Zm-19.89,10.43h1.92v-15.34h-1.92v15.34Zm-7.76-10.27c-.55-.23-1.55-.41-2.33-.41-3.19,0-5.32,2.29-5.32,5.46,0,2.99,2.17,5.46,5.32,5.46.7,0,1.62-.06,2.41-.43l-.14-1.72c-.59.39-1.41.59-2.07.59-2.47,0-3.48-2.05-3.48-3.91,0-1.98,1.21-3.91,3.35-3.91.61,0,1.35.14,2.09.45l.16-1.6Zm-23.67,10.27h2.29l2.58-4.09,2.58,4.09h2.37l-3.68-5.46,3.35-4.97h-2.15l-2.31,3.72-2.27-3.72h-2.39l3.39,4.97-3.76,5.46Zm-13.81-6.22c.14-1.35.92-2.9,2.8-2.9,1.66,0,2.6,1.31,2.6,2.9h-5.4Zm6.65,3.87c-.47.39-1.94,1.04-3.21,1.04-1.82,0-3.44-1.41-3.44-3.48h7.44c0-3.35-1.12-5.89-4.6-5.89-2.94,0-4.89,2.19-4.89,5.28,0,3.39,1.7,5.64,5.4,5.64,1.72,0,2.56-.41,3.29-.67v-1.92Zm-27.74,2.02c.88.47,1.88.57,2.86.57,1.86,0,3.64-1.02,3.64-3.25,0-3.33-4.52-2.72-4.52-4.85,0-.86.86-1.27,1.84-1.27.45,0,1.6.27,2.02.53l.16-1.68c-.76-.23-1.49-.41-2.39-.41-2.07,0-3.68,1.04-3.68,3.21,0,2.92,4.52,2.76,4.52,4.66,0,1.12-1.08,1.49-1.96,1.49-.55,0-1.64-.25-2.39-.74l-.1,1.72Zm-15.49-4.89c0-1.98,1.21-3.91,3.27-3.91s3.25,1.92,3.25,3.91c0,1.86-1,3.91-3.25,3.91s-3.27-2.05-3.27-3.91Zm-2.04,0c0,2.99,2.17,5.46,5.32,5.46s5.3-2.47,5.3-5.46c0-3.17-2.13-5.46-5.3-5.46s-5.32,2.29-5.32,5.46Zm-7.92-9.71h-2.17v2.17h2.17v-2.17Zm-2.05,14.93h1.92v-10.43h-1.92v10.43Zm-7.76-10.27c-.55-.23-1.55-.41-2.33-.41-3.19,0-5.32,2.29-5.32,5.46,0,2.99,2.17,5.46,5.32,5.46.7,0,1.62-.06,2.41-.43l-.14-1.72c-.59.39-1.41.59-2.07.59-2.47,0-3.48-2.05-3.48-3.91,0-1.98,1.21-3.91,3.35-3.91.61,0,1.35.14,2.09.45l.16-1.6Zm-17.84-1.62h1.37l2.68-2.95h-2.23l-1.82,2.95Zm.39,11.88h1.92v-10.43h-1.92v10.43Zm-12.18,0h1.92v-8.88h2.76v-1.55h-2.76v-1.12c0-1.41.2-2.47,1.86-2.47.33,0,.7.04.92.12l.08-1.55c-.39-.06-.8-.12-1.29-.12-2.84,0-3.5,1.66-3.5,4.19v.96h-2.45v1.55h2.45v8.88Zm-16.49-6.22c.14-1.35.92-2.9,2.8-2.9,1.66,0,2.6,1.31,2.6,2.9h-5.4Zm6.65,3.87c-.47.39-1.94,1.04-3.21,1.04-1.82,0-3.44-1.41-3.44-3.48h7.44c0-3.35-1.12-5.89-4.6-5.89-2.94,0-4.89,2.19-4.89,5.28,0,3.39,1.7,5.64,5.4,5.64,1.72,0,2.56-.41,3.29-.67v-1.92Zm-25.71,2.35h1.92v-4.83c0-2.54.98-4.29,3.17-4.29,1.68.1,2.21,1.29,2.21,3.72v5.4h1.92v-6.2c0-2.8-1.21-4.48-3.91-4.48-1.45,0-2.84.72-3.42,1.9h-.04v-1.66h-1.86v10.43Zm-15.24-6.22c.14-1.35.92-2.9,2.8-2.9,1.66,0,2.6,1.31,2.6,2.9h-5.4Zm6.65,3.87c-.47.39-1.94,1.04-3.21,1.04-1.82,0-3.44-1.41-3.44-3.48h7.44c0-3.35-1.12-5.89-4.6-5.89-2.94,0-4.89,2.19-4.89,5.28,0,3.39,1.7,5.64,5.4,5.64,1.72,0,2.56-.41,3.29-.67v-1.92Zm-23.61-10.25h2.15c1.19,0,2.64.43,2.64,2.13,0,2.11-1.68,2.29-3.66,2.29h-1.12v-4.42Zm0,6.09h1.33c1.76,0,3.7.31,3.7,2.52,0,1.92-1.66,2.31-3.5,2.31h-1.53v-4.83Zm-2.05,6.5h3.8c2.9,0,5.44-.74,5.44-3.8,0-2-1.37-3.27-3.31-3.44v-.04c1.8-.45,2.94-1.43,2.94-3.39,0-2.64-2.04-3.6-5.01-3.6h-3.87v14.27Z"/></g></svg>